<svg width="407" height="35" viewBox="0 0 407 35" fill="none" xmlns="http://www.w3.org/2000/svg">
<path d="M17.6596 0L0 34.9448C0.774971 34.9448 1.4711 34.9763 2.12861 34.9642C2.73802 34.9529 3.31747 34.9933 3.87328 34.9731C7.12847 35.0541 8.04219 34.6492 8.64057 31.9424C8.92359 30.6623 9.78292 30.323 11.0688 30.3587C12.0794 30.387 13.0917 30.417 14.1048 30.4396L11.9975 24.673L17.9008 13.211L23.3721 24.4244L21.3357 30.3838C21.6054 30.3681 21.8747 30.3506 22.1438 30.3311C24.7581 30.1425 26.3317 30.9254 27.0656 33.5238C27.2288 34.1003 27.3644 34.9261 28.2324 34.9342C30.5234 34.9553 32.8152 34.9415 35.3585 34.9415L17.6596 0Z" fill="#424242"/>
<path d="M337.411 14.302L331.746 31.0206L326.054 14.302H324.147L318.371 30.9377L312.789 14.302H310.689L317.211 33.6458H319.339L325.031 17.1483L330.696 33.6458H332.852L339.373 14.302H337.411Z" fill="#424242"/>
<path d="M351.39 33.8116C357.193 33.8116 361.531 29.6389 361.531 23.9739C361.531 18.309 357.193 14.1362 351.39 14.1362C345.531 14.1362 341.22 18.3366 341.22 23.9739C341.22 29.6113 345.531 33.8116 351.39 33.8116ZM351.39 31.9878C346.72 31.9878 343.238 28.5888 343.238 23.9739C343.238 19.3591 346.72 15.9601 351.39 15.9601C356.032 15.9601 359.487 19.3591 359.487 23.9739C359.487 28.5888 356.032 31.9878 351.39 31.9878Z" fill="#424242"/>
<path d="M381.562 33.6458L376.837 27.0137C379.656 26.1017 381.258 23.9739 381.258 20.9342C381.258 16.7891 378.274 14.302 373.355 14.302L368.16 14.1362V33.6458V27.5111H373.355C373.908 27.5111 374.405 27.4834 374.903 27.4282L379.324 33.6458H381.562ZM373.3 25.7701H368.16V16.0706H373.3C377.169 16.0706 379.214 17.8392 379.214 20.9342C379.214 23.9739 377.169 25.7701 373.3 25.7701Z" fill="#424242"/>
<path d="M399.985 33.6458H402.417L393.463 23.062L401.836 14.302H399.487L388.13 25.9912V14.302H386.085V33.6458H388.13V28.5612L392.081 24.5542L399.985 33.6458Z" fill="#424242"/>
<path d="M405.508 33.7841C406.309 33.7841 407 33.1209 407 32.2642C407 31.4076 406.309 30.772 405.508 30.772C404.706 30.772 404.043 31.4076 404.043 32.2642C404.043 33.1209 404.706 33.7841 405.508 33.7841Z" fill="#424242"/>
<path d="M235.893 33.646H238.049L229.206 14.3022H227.189L218.346 33.646H220.474L222.795 28.4785H233.572L235.893 33.646ZM222.795 28.4785L228.183 16.4301L233.572 28.4785H222.795Z" fill="#424242"/>
<path d="M256.696 33.646L251.971 27.0139C254.789 26.102 256.392 23.9741 256.392 20.9344C256.392 16.7893 253.408 14.3022 248.489 14.3022H243.294V33.646V27.5113H248.489C249.041 27.5113 249.539 27.4837 250.036 27.4284L254.458 33.646H256.696ZM248.433 25.7704H243.294V16.0708H248.433C252.302 16.0708 254.347 17.8394 254.347 20.9344C254.347 23.9741 252.302 25.7704 248.433 25.7704Z" fill="#424242"/>
<path d="M264.707 33.646H266.752V16.0708H273.55V14.3022H257.909V16.0708H264.707V33.646Z" fill="#424242"/>
<path d="M81.4053 33.2515H87.236C93.4261 33.2515 97.5988 29.2722 97.5988 23.5796C97.5988 17.887 93.4261 13.9077 87.236 13.9077H81.4053L81.4053 33.2515ZM81.4053 31.4829V15.6763H87.1255C92.2654 15.6763 95.5815 18.9371 95.5815 23.5796C95.5815 28.2221 92.2654 31.4829 87.1255 31.4829H81.4053Z" fill="#424242"/>
<path d="M104.236 31.4829V24.2981H114.239V22.5572H104.236V15.6763H115.455V13.9077H102.191V33.2515H115.87V31.4829H104.236Z" fill="#424242"/>
<path d="M136.124 33.2515L131.398 26.6194C134.217 25.7074 135.82 23.5796 135.82 20.5399C135.82 16.3948 132.835 13.9077 127.917 13.9077H122.721V33.2515V27.1168H127.917C128.469 27.1168 128.967 27.0891 129.464 27.0339L133.885 33.2515H136.124ZM127.861 25.3758H122.721V15.6763H127.861C131.73 15.6763 133.775 17.4449 133.775 20.5399C133.775 23.5796 131.73 25.3758 127.861 25.3758Z" fill="#424242"/>
<path d="M142.691 31.4829V24.2981H152.695V22.5572H142.691V15.6763H153.911V13.9077H140.646V33.2515H154.325V31.4829H142.691Z" fill="#424242"/>
<path d="M159.132 33.2515H172.009V31.4829H161.177V13.9077H159.132V33.2515Z" fill="#424242"/>
<path d="M315.008 13.9077H316.489V34.1397H315.008V13.9077Z" fill="white"/>
</svg>
