<svg width="90" height="25" viewBox="0 0 90 25" fill="none" xmlns="http://www.w3.org/2000/svg">
<path d="M9.04237 0.75061C9.42191 0.27618 9.99654 0 10.6041 0H88C89.1046 0 90 0.895431 90 2V22.1071C90 23.2117 89.1046 24.1071 88 24.1071H10.6041C9.99654 24.1071 9.42191 23.831 9.04237 23.3565L0.999513 13.303C0.415163 12.5725 0.415162 11.5346 0.999512 10.8042L9.04237 0.75061Z" fill="#5A47AB"/>
<path d="M25.9408 6.16665H16.0592C15.9481 6.1651 15.8378 6.18546 15.7346 6.22655C15.6314 6.26763 15.5373 6.32865 15.4576 6.40611C15.378 6.48357 15.3144 6.57596 15.2705 6.678C15.2266 6.78004 15.2032 6.88973 15.2017 7.00081V16.9991C15.2032 17.1102 15.2266 17.2199 15.2705 17.322C15.3144 17.424 15.378 17.5164 15.4576 17.5938C15.5373 17.6713 15.6314 17.7323 15.7346 17.7734C15.8378 17.8145 15.9481 17.8349 16.0592 17.8333H25.9408C26.0519 17.8349 26.1622 17.8145 26.2654 17.7734C26.3686 17.7323 26.4627 17.6713 26.5424 17.5938C26.622 17.5164 26.6856 17.424 26.7295 17.322C26.7734 17.2199 26.7968 17.1102 26.7983 16.9991V7.00081C26.7968 6.88973 26.7734 6.78004 26.7295 6.678C26.6856 6.57596 26.622 6.48357 26.5424 6.40611C26.4627 6.32865 26.3686 6.26763 26.2654 6.22655C26.1622 6.18546 26.0519 6.1651 25.9408 6.16665ZM18.7192 15.9316H16.9692V10.6816H18.7192V15.9316ZM17.8442 9.94665C17.6028 9.94665 17.3714 9.85077 17.2007 9.68011C17.03 9.50946 16.9342 9.27799 16.9342 9.03665C16.9342 8.7953 17.03 8.56384 17.2007 8.39318C17.3714 8.22252 17.6028 8.12665 17.8442 8.12665C17.9723 8.11211 18.1021 8.12481 18.225 8.16391C18.3479 8.20301 18.4612 8.26763 18.5574 8.35354C18.6536 8.43945 18.7306 8.54471 18.7833 8.66243C18.836 8.78015 18.8632 8.90767 18.8632 9.03665C18.8632 9.16562 18.836 9.29315 18.7833 9.41087C18.7306 9.52858 18.6536 9.63384 18.5574 9.71975C18.4612 9.80566 18.3479 9.87028 18.225 9.90938C18.1021 9.94848 17.9723 9.96118 17.8442 9.94665ZM25.0308 15.9316H23.2808V13.1141C23.2808 12.4083 23.03 11.9475 22.3942 11.9475C22.1974 11.9489 22.0058 12.0106 21.8451 12.1243C21.6845 12.238 21.5626 12.3982 21.4958 12.5833C21.4502 12.7204 21.4304 12.8648 21.4375 13.0091V15.9258H19.6875C19.6875 15.9258 19.6875 11.1541 19.6875 10.6758H21.4375V11.4166C21.5965 11.1408 21.8277 10.9135 22.1063 10.7593C22.3848 10.6052 22.7002 10.5299 23.0183 10.5416C24.185 10.5416 25.0308 11.2941 25.0308 12.91V15.9316Z" fill="white"/>
<path d="M43.26 9V12.12H38.88V9H38.14V16H38.88V12.77H43.26V16H43.99V9H43.26ZM46.4848 9.59C46.7848 9.59 47.0048 9.36 47.0048 9.07C47.0048 8.8 46.7748 8.58 46.4848 8.58C46.1948 8.58 45.9648 8.81 45.9648 9.08C45.9648 9.36 46.1948 9.59 46.4848 9.59ZM46.1248 16H46.8348V10.74H46.1248V16ZM49.4903 11.77V10.74H48.8103V16H49.5203V13.32C49.5203 12.08 50.1903 11.38 51.2903 11.38C51.3403 11.38 51.4003 11.39 51.4603 11.39V10.7C50.4903 10.7 49.8203 11.07 49.4903 11.77ZM57.287 13.37C57.287 11.79 56.217 10.7 54.737 10.7C53.257 10.7 52.167 11.81 52.167 13.37C52.167 14.93 53.287 16.05 54.927 16.05C55.757 16.05 56.487 15.75 56.957 15.19L56.557 14.73C56.157 15.19 55.587 15.42 54.947 15.42C53.797 15.42 52.957 14.69 52.877 13.59H57.277C57.277 13.51 57.287 13.43 57.287 13.37ZM54.737 11.31C55.767 11.31 56.517 12.03 56.607 13.06H52.877C52.967 12.03 53.717 11.31 54.737 11.31ZM68.1594 9L65.1494 14.19L62.1094 9H61.4994V16H62.2094V10.43L64.9594 15.11H65.3094L68.0594 10.4V16H68.7694V9H68.1594ZM75.4902 13.37C75.4902 11.79 74.4202 10.7 72.9402 10.7C71.4602 10.7 70.3702 11.81 70.3702 13.37C70.3702 14.93 71.4902 16.05 73.1302 16.05C73.9602 16.05 74.6902 15.75 75.1602 15.19L74.7602 14.73C74.3602 15.19 73.7902 15.42 73.1502 15.42C72.0002 15.42 71.1602 14.69 71.0802 13.59H75.4802C75.4802 13.51 75.4902 13.43 75.4902 13.37ZM72.9402 11.31C73.9702 11.31 74.7202 12.03 74.8102 13.06H71.0802C71.1702 12.03 71.9202 11.31 72.9402 11.31Z" fill="white"/>
</svg>
